<mxfile host="app.diagrams.net" modified="2024-01-01T00:00:00.000Z" agent="DrawIO" version="22.0.0" type="device">
  <diagram name="质检任务模块" id="task-module">
    <mxGraphModel dx="1422" dy="794" grid="1" gridSize="10" guides="1" tooltips="1" connect="1" arrows="1" fold="1" page="1" pageScale="1" pageWidth="1169" pageHeight="827" math="0" shadow="0">
      <root>
        <mxCell id="0" />
        <mxCell id="1" parent="0" />
        
        <!-- GpTaskFunc 类 -->
        <mxCell id="GpTaskFunc" value="&lt;b&gt;GpTaskFunc (任务管理)&lt;/b&gt;" style="swimlane;fontStyle=0;childLayout=stackLayout;horizontal=1;startSize=30;horizontalStack=0;resizeParent=1;resizeParentMax=0;resizeLast=0;collapsible=1;marginBottom=0;whiteSpace=wrap;html=1;fillColor=#dae8fc;strokeColor=#6c8ebf;" vertex="1" parent="1">
          <mxGeometry x="40" y="40" width="450" height="380" as="geometry" />
        </mxCell>
        <mxCell id="GpTaskFunc-fields" value="- bsmls: List&lt;string&gt;" style="text;strokeColor=none;fillColor=none;align=left;verticalAlign=top;spacingLeft=4;spacingRight=4;overflow=hidden;rotatable=0;points=[[0,0.5],[1,0.5]];portConstraint=eastwest;whiteSpace=wrap;html=1;" vertex="1" parent="GpTaskFunc">
          <mxGeometry y="30" width="450" height="30" as="geometry" />
        </mxCell>
        <mxCell id="GpTaskFunc-line" value="" style="line;strokeWidth=1;fillColor=none;align=left;verticalAlign=middle;spacingTop=-1;spacingLeft=3;spacingRight=3;rotatable=0;labelPosition=right;points=[];portConstraint=eastwest;strokeColor=inherit;" vertex="1" parent="GpTaskFunc">
          <mxGeometry y="60" width="450" height="8" as="geometry" />
        </mxCell>
        <mxCell id="GpTaskFunc-methods" value="+ saveTask2csv(csvPath: string): void&#xa;+ SortGpBeanList(): void&#xa;+ addTaskByCache(csvpath: string): void&#xa;+ AddGpTask(menuBean, ta): string&#xa;+ AddGpTask(menuBean, ta, state, bsm, showInfo): string&#xa;- CreateNewTask(menuBean, ta, state, bsm): void&#xa;+ runwhich(step: bool, bsmList: List&lt;string&gt;): void&#xa;+ stopgptask(): void&#xa;+ deltask(bsm: string): void&#xa;+ deltaskbysimilar(bsm: string): void&#xa;+ moveTaskUp(bsm: string): void&#xa;+ moveTaskDown(bsm: string): void&#xa;+ GetTaskByBSM(bsm: string): GpBean" style="text;strokeColor=none;fillColor=none;align=left;verticalAlign=top;spacingLeft=4;spacingRight=4;overflow=hidden;rotatable=0;points=[[0,0.5],[1,0.5]];portConstraint=eastwest;whiteSpace=wrap;html=1;" vertex="1" parent="GpTaskFunc">
          <mxGeometry y="68" width="450" height="312" as="geometry" />
        </mxCell>
        
        <!-- GpBean 类 -->
        <mxCell id="GpBean" value="&lt;b&gt;GpBean (任务实体)&lt;/b&gt;" style="swimlane;fontStyle=0;childLayout=stackLayout;horizontal=1;startSize=30;horizontalStack=0;resizeParent=1;resizeParentMax=0;resizeLast=0;collapsible=1;marginBottom=0;whiteSpace=wrap;html=1;fillColor=#fff2cc;strokeColor=#d6b656;" vertex="1" parent="1">
          <mxGeometry x="550" y="40" width="280" height="200" as="geometry" />
        </mxCell>
        <mxCell id="GpBean-fields" value="+ menuBean: MenuBean&#xa;+ toolArglist: List&lt;ToolArgs&gt;&#xa;+ state: GpStateEnum&#xa;+ BSM: string&#xa;+ startTime: DateTime&#xa;+ endTime: DateTime&#xa;+ result: string" style="text;strokeColor=none;fillColor=none;align=left;verticalAlign=top;spacingLeft=4;spacingRight=4;overflow=hidden;rotatable=0;points=[[0,0.5],[1,0.5]];portConstraint=eastwest;whiteSpace=wrap;html=1;" vertex="1" parent="GpBean">
          <mxGeometry y="30" width="280" height="110" as="geometry" />
        </mxCell>
        <mxCell id="GpBean-line" value="" style="line;strokeWidth=1;fillColor=none;align=left;verticalAlign=middle;spacingTop=-1;spacingLeft=3;spacingRight=3;rotatable=0;labelPosition=right;points=[];portConstraint=eastwest;strokeColor=inherit;" vertex="1" parent="GpBean">
          <mxGeometry y="140" width="280" height="8" as="geometry" />
        </mxCell>
        <mxCell id="GpBean-methods" value="// 任务执行实体类" style="text;strokeColor=none;fillColor=none;align=left;verticalAlign=top;spacingLeft=4;spacingRight=4;overflow=hidden;rotatable=0;points=[[0,0.5],[1,0.5]];portConstraint=eastwest;whiteSpace=wrap;html=1;" vertex="1" parent="GpBean">
          <mxGeometry y="148" width="280" height="52" as="geometry" />
        </mxCell>
        
        <!-- GpStateEnum 类 -->
        <mxCell id="GpStateEnum" value="&lt;b&gt;&lt;&lt;enumeration&gt;&gt;&#xa;GpStateEnum&lt;/b&gt;" style="swimlane;fontStyle=0;childLayout=stackLayout;horizontal=1;startSize=40;horizontalStack=0;resizeParent=1;resizeParentMax=0;resizeLast=0;collapsible=1;marginBottom=0;whiteSpace=wrap;html=1;fillColor=#e1d5e7;strokeColor=#9673a6;" vertex="1" parent="1">
          <mxGeometry x="880" y="40" width="200" height="140" as="geometry" />
        </mxCell>
        <mxCell id="GpStateEnum-values" value="未开始&#xa;队列中&#xa;运行中&#xa;已完成&#xa;失败" style="text;strokeColor=none;fillColor=none;align=left;verticalAlign=top;spacingLeft=4;spacingRight=4;overflow=hidden;rotatable=0;points=[[0,0.5],[1,0.5]];portConstraint=eastwest;whiteSpace=wrap;html=1;" vertex="1" parent="GpStateEnum">
          <mxGeometry y="40" width="200" height="100" as="geometry" />
        </mxCell>
        
        <!-- MainLogForm 类 -->
        <mxCell id="MainLogForm" value="&lt;b&gt;MainLogForm (运行日志)&lt;/b&gt;" style="swimlane;fontStyle=0;childLayout=stackLayout;horizontal=1;startSize=30;horizontalStack=0;resizeParent=1;resizeParentMax=0;resizeLast=0;collapsible=1;marginBottom=0;whiteSpace=wrap;html=1;fillColor=#dae8fc;strokeColor=#6c8ebf;" vertex="1" parent="1">
          <mxGeometry x="40" y="460" width="320" height="180" as="geometry" />
        </mxCell>
        <mxCell id="MainLogForm-fields" value="- uiRichTextBox1: RichTextBox&#xa;- pageHeader1: PageHeader" style="text;strokeColor=none;fillColor=none;align=left;verticalAlign=top;spacingLeft=4;spacingRight=4;overflow=hidden;rotatable=0;points=[[0,0.5],[1,0.5]];portConstraint=eastwest;whiteSpace=wrap;html=1;" vertex="1" parent="MainLogForm">
          <mxGeometry y="30" width="320" height="50" as="geometry" />
        </mxCell>
        <mxCell id="MainLogForm-line" value="" style="line;strokeWidth=1;fillColor=none;align=left;verticalAlign=middle;spacingTop=-1;spacingLeft=3;spacingRight=3;rotatable=0;labelPosition=right;points=[];portConstraint=eastwest;strokeColor=inherit;" vertex="1" parent="MainLogForm">
          <mxGeometry y="80" width="320" height="8" as="geometry" />
        </mxCell>
        <mxCell id="MainLogForm-methods" value="+ MainLogForm_Load(): void&#xa;+ ClearLogMenuItem_Click(): void&#xa;# OnClosing(e: CancelEventArgs): void" style="text;strokeColor=none;fillColor=none;align=left;verticalAlign=top;spacingLeft=4;spacingRight=4;overflow=hidden;rotatable=0;points=[[0,0.5],[1,0.5]];portConstraint=eastwest;whiteSpace=wrap;html=1;" vertex="1" parent="MainLogForm">
          <mxGeometry y="88" width="320" height="92" as="geometry" />
        </mxCell>
        
        <!-- LogHelper 类 -->
        <mxCell id="LogHelper" value="&lt;b&gt;LogHelper (日志工具)&lt;/b&gt;" style="swimlane;fontStyle=0;childLayout=stackLayout;horizontal=1;startSize=30;horizontalStack=0;resizeParent=1;resizeParentMax=0;resizeLast=0;collapsible=1;marginBottom=0;whiteSpace=wrap;html=1;fillColor=#d5e8d4;strokeColor=#82b366;" vertex="1" parent="1">
          <mxGeometry x="400" y="460" width="400" height="220" as="geometry" />
        </mxCell>
        <mxCell id="LogHelper-fields" value="// 静态工具类" style="text;strokeColor=none;fillColor=none;align=left;verticalAlign=top;spacingLeft=4;spacingRight=4;overflow=hidden;rotatable=0;points=[[0,0.5],[1,0.5]];portConstraint=eastwest;whiteSpace=wrap;html=1;" vertex="1" parent="LogHelper">
          <mxGeometry y="30" width="400" height="30" as="geometry" />
        </mxCell>
        <mxCell id="LogHelper-line" value="" style="line;strokeWidth=1;fillColor=none;align=left;verticalAlign=middle;spacingTop=-1;spacingLeft=3;spacingRight=3;rotatable=0;labelPosition=right;points=[];portConstraint=eastwest;strokeColor=inherit;" vertex="1" parent="LogHelper">
          <mxGeometry y="60" width="400" height="8" as="geometry" />
        </mxCell>
        <mxCell id="LogHelper-methods" value="+ normallog(message: string): void&#xa;+ ErrorLog(title: string, message: string): void&#xa;+ Infonotice(title: string, message: string): void&#xa;+ gpstrspilter(gpstr: string): string&#xa;+ getMainLogForm(): MainLogForm&#xa;+ AppendLog(message: string, color: Color): void" style="text;strokeColor=none;fillColor=none;align=left;verticalAlign=top;spacingLeft=4;spacingRight=4;overflow=hidden;rotatable=0;points=[[0,0.5],[1,0.5]];portConstraint=eastwest;whiteSpace=wrap;html=1;" vertex="1" parent="LogHelper">
          <mxGeometry y="68" width="400" height="152" as="geometry" />
        </mxCell>
        
        <!-- DefaultTaskInitializer 类 -->
        <mxCell id="DefaultTaskInitializer" value="&lt;b&gt;DefaultTaskInitializer&lt;/b&gt;" style="swimlane;fontStyle=0;childLayout=stackLayout;horizontal=1;startSize=30;horizontalStack=0;resizeParent=1;resizeParentMax=0;resizeLast=0;collapsible=1;marginBottom=0;whiteSpace=wrap;html=1;fillColor=#d5e8d4;strokeColor=#82b366;" vertex="1" parent="1">
          <mxGeometry x="550" y="280" width="400" height="140" as="geometry" />
        </mxCell>
        <mxCell id="DefaultTaskInitializer-fields" value="// 任务初始化类" style="text;strokeColor=none;fillColor=none;align=left;verticalAlign=top;spacingLeft=4;spacingRight=4;overflow=hidden;rotatable=0;points=[[0,0.5],[1,0.5]];portConstraint=eastwest;whiteSpace=wrap;html=1;" vertex="1" parent="DefaultTaskInitializer">
          <mxGeometry y="30" width="400" height="30" as="geometry" />
        </mxCell>
        <mxCell id="DefaultTaskInitializer-line" value="" style="line;strokeWidth=1;fillColor=none;align=left;verticalAlign=middle;spacingTop=-1;spacingLeft=3;spacingRight=3;rotatable=0;labelPosition=right;points=[];portConstraint=eastwest;strokeColor=inherit;" vertex="1" parent="DefaultTaskInitializer">
          <mxGeometry y="60" width="400" height="8" as="geometry" />
        </mxCell>
        <mxCell id="DefaultTaskInitializer-methods" value="+ InitializeAllDefaultTasks(): void&#xa;- InitializeTask(taskName, csvFile): void" style="text;strokeColor=none;fillColor=none;align=left;verticalAlign=top;spacingLeft=4;spacingRight=4;overflow=hidden;rotatable=0;points=[[0,0.5],[1,0.5]];portConstraint=eastwest;whiteSpace=wrap;html=1;" vertex="1" parent="DefaultTaskInitializer">
          <mxGeometry y="68" width="400" height="72" as="geometry" />
        </mxCell>
        
        <!-- 关系箭头 -->
        <mxCell id="rel1" value="" style="endArrow=open;endFill=0;dashed=1;html=1;rounded=0;exitX=1;exitY=0.25;exitDx=0;exitDy=0;entryX=0;entryY=0.25;entryDx=0;entryDy=0;" edge="1" parent="1" source="GpTaskFunc" target="GpBean">
          <mxGeometry width="50" height="50" relative="1" as="geometry">
            <mxPoint x="600" y="400" as="sourcePoint" />
            <mxPoint x="650" y="350" as="targetPoint" />
          </mxGeometry>
        </mxCell>
        <mxCell id="rel1-label" value="manages" style="edgeLabel;html=1;align=center;verticalAlign=middle;resizable=0;points=[];" vertex="1" connectable="0" parent="rel1">
          <mxGeometry x="-0.2" y="-1" relative="1" as="geometry">
            <mxPoint as="offset" />
          </mxGeometry>
        </mxCell>
        
        <mxCell id="rel2" value="" style="endArrow=open;endFill=0;dashed=1;html=1;rounded=0;exitX=1;exitY=0.5;exitDx=0;exitDy=0;entryX=0;entryY=0.5;entryDx=0;entryDy=0;" edge="1" parent="1" source="GpBean-fields" target="GpStateEnum-values">
          <mxGeometry width="50" height="50" relative="1" as="geometry">
            <mxPoint x="600" y="400" as="sourcePoint" />
            <mxPoint x="650" y="350" as="targetPoint" />
          </mxGeometry>
        </mxCell>
        <mxCell id="rel2-label" value="uses" style="edgeLabel;html=1;align=center;verticalAlign=middle;resizable=0;points=[];" vertex="1" connectable="0" parent="rel2">
          <mxGeometry x="-0.2" y="-1" relative="1" as="geometry">
            <mxPoint as="offset" />
          </mxGeometry>
        </mxCell>
        
        <mxCell id="rel3" value="" style="endArrow=open;endFill=0;dashed=1;html=1;rounded=0;exitX=0.5;exitY=1;exitDx=0;exitDy=0;entryX=0.5;entryY=0;entryDx=0;entryDy=0;" edge="1" parent="1" source="GpTaskFunc" target="MainLogForm">
          <mxGeometry width="50" height="50" relative="1" as="geometry">
            <mxPoint x="300" y="450" as="sourcePoint" />
            <mxPoint x="350" y="400" as="targetPoint" />
          </mxGeometry>
        </mxCell>
        <mxCell id="rel3-label" value="logs to" style="edgeLabel;html=1;align=center;verticalAlign=middle;resizable=0;points=[];" vertex="1" connectable="0" parent="rel3">
          <mxGeometry x="-0.2" y="-1" relative="1" as="geometry">
            <mxPoint as="offset" />
          </mxGeometry>
        </mxCell>
        
        <mxCell id="rel4" value="" style="endArrow=open;endFill=0;dashed=1;html=1;rounded=0;exitX=0;exitY=0.5;exitDx=0;exitDy=0;entryX=1;entryY=0.5;entryDx=0;entryDy=0;" edge="1" parent="1" source="LogHelper" target="MainLogForm-methods">
          <mxGeometry width="50" height="50" relative="1" as="geometry">
            <mxPoint x="300" y="550" as="sourcePoint" />
            <mxPoint x="350" y="500" as="targetPoint" />
          </mxGeometry>
        </mxCell>
        <mxCell id="rel4-label" value="writes to" style="edgeLabel;html=1;align=center;verticalAlign=middle;resizable=0;points=[];" vertex="1" connectable="0" parent="rel4">
          <mxGeometry x="-0.2" y="-1" relative="1" as="geometry">
            <mxPoint as="offset" />
          </mxGeometry>
        </mxCell>
        
        <mxCell id="rel5" value="" style="endArrow=open;endFill=0;dashed=1;html=1;rounded=0;exitX=0.5;exitY=1;exitDx=0;exitDy=0;entryX=0.5;entryY=0;entryDx=0;entryDy=0;" edge="1" parent="1" source="GpBean" target="DefaultTaskInitializer">
          <mxGeometry width="50" height="50" relative="1" as="geometry">
            <mxPoint x="500" y="350" as="sourcePoint" />
            <mxPoint x="550" y="300" as="targetPoint" />
          </mxGeometry>
        </mxCell>
        <mxCell id="rel5-label" value="initialized by" style="edgeLabel;html=1;align=center;verticalAlign=middle;resizable=0;points=[];" vertex="1" connectable="0" parent="rel5">
          <mxGeometry x="-0.2" y="-1" relative="1" as="geometry">
            <mxPoint as="offset" />
          </mxGeometry>
        </mxCell>
        
      </root>
    </mxGraphModel>
  </diagram>
</mxfile>